# xmcd
#
# Track frame offsets:
#   150
#   18899
#   33471
#   45171
#   61009
#   73702
#   86746
#   103645
#   117151
#   133847
#   151620
#   170242
#   186381
#   199779
#   230346
#   244348
#
# Disc length: 3439 seconds
#
# Revision: 0
# Processed by: cddbd v1.5.1PL2 Copyright (c) Steve Scherf et al.
# Submitted via: uFREEDB ActiveX Control 1.5
#
DISCID=d30d6d10
DTITLE=Sertanejão 2005 - Ao vivo e em cores
DYEAR=2005
DGENRE=Country
TTITLE0=Peão apaixonado - Pode passar o rodo - Eu me amarr
TTITLE1=Corrinha - Trio Fala Sério da Bahia
TTITLE2=Tá levando gaia - Trio Fala Sério da Bahia
TTITLE3=Amor descontrolado - Rionegro e Solimões
TTITLE4=De bem com a vida - Rionegro e Solimões
TTITLE5=Na sola da bota - Rionegro e Solimões
TTITLE6=Garrafão - Teodoro e Sampaio
TTITLE7=É mentira dela - Teodoro e Sampaio
TTITLE8=Vírus da paixão - Teodoro e Sampaio
TTITLE9=De igual pra igual - Matogrosso e Mathias
TTITLE10=Tentei te esquecer - Matogrosso e Mathias
TTITLE11=Quando o amor é pra valer - Eduardo Costa
TTITLE12=Pagode em Brasília - Pagode - A coisa tá feia - Ed
TTITLE13=Bônus Track - O causo do Marimbondo - Geraldinho
TTITLE14=Apaziguar - Bruno e Marrone
TTITLE15=Credo em Cruz Ave Maria - Bruno e Marrone
EXTD=
EXTT0=
EXTT1=
EXTT2=
EXTT3=
EXTT4=
EXTT5=
EXTT6=
EXTT7=
EXTT8=
EXTT9=
EXTT10=
EXTT11=
EXTT12=
EXTT13=
EXTT14=
EXTT15=
PLAYORDER=
